# xmcd
#
# Track frame offsets: 
#        150
#        13415
#        28275
#        39800
#        53463
#        64583
#        76481
#        88676
#        101359
#        114427
#
# Disc length: 1697 seconds
#
# Revision: 0
# Processed by: cddbd v1.4PL0 Copyright (c) Steve Scherf et al.
# Submitted via: ExactAudioCopy v0.90b4
#
DISCID=72069f0a
DTITLE=Sam And Dave - Soul Man
DYEAR=1900
DGENRE=Rhythmic Soul
TTITLE0=Soul Man
TTITLE1=When Something Is Wrong With My Baby
TTITLE2=Can't Find Another Way (Of Doing It)
TTITLE3=Don't Pull Your Love
TTITLE4=You Don't Know What You Mean To Me
TTITLE5=Hold On! I'm Comin'
TTITLE6=You Don't Know Like I Know
TTITLE7=Said I Wasn't Gonna Tell Nobody
TTITLE8=You Got Me Hummin'
TTITLE9=I Thank You
EXTD=
EXTT0=
EXTT1=
EXTT2=
EXTT3=
EXTT4=
EXTT5=
EXTT6=
EXTT7=
EXTT8=
EXTT9=
PLAYORDER=
